<?xml version="1.0" encoding="UTF-8" standalone="no"?>
<svg
   fill="#000000"
   version="1.1"
   id="Capa_1"
   width="800px"
   height="800px"
   viewBox="0 0 402.917 402.917"
   xml:space="preserve"
   sodipodi:docname="restart.svg"
   inkscape:version="1.4.3 (0d15f75042, 2025-12-25)"
   xmlns:inkscape="http://www.inkscape.org/namespaces/inkscape"
   xmlns:sodipodi="http://sodipodi.sourceforge.net/DTD/sodipodi-0.dtd"
   xmlns="http://www.w3.org/2000/svg"
   xmlns:svg="http://www.w3.org/2000/svg"><defs
   id="defs1" /><sodipodi:namedview
   id="namedview1"
   pagecolor="#000000"
   bordercolor="#000000"
   borderopacity="0.25"
   inkscape:showpageshadow="2"
   inkscape:pageopacity="0.0"
   inkscape:pagecheckerboard="0"
   inkscape:deskcolor="#d1d1d1"
   inkscape:zoom="0.6125"
   inkscape:cx="400"
   inkscape:cy="400.81633"
   inkscape:window-width="1534"
   inkscape:window-height="831"
   inkscape:window-x="0"
   inkscape:window-y="0"
   inkscape:window-maximized="1"
   inkscape:current-layer="Capa_1"
   inkscape:export-bgcolor="#00000000" />
<g
   id="g1"
   style="display:inline;fill:#ffffff;fill-opacity:1">
	<g
   id="Layer_8_7_"
   style="fill:#ffffff;fill-opacity:1">
		<path
   d="m 386.004,20.848 v 361.213 c 0,7.447 -3.972,14.333 -10.427,18.063 -6.46,3.724 -14.398,3.724 -20.853,0 L 138.281,219.515 c -6.452,-3.719 -10.436,-10.604 -10.436,-18.058 0,-7.451 3.978,-14.34 10.436,-18.061 L 354.725,2.79 C 357.952,0.928 361.551,0 365.151,0 c 3.605,0 7.199,0.934 10.427,2.79 6.455,3.718 10.426,10.607 10.426,18.058 z M 94.066,0.201 H 25.261 c -4.613,0 -8.349,3.735 -8.349,8.34 v 385.808 c 0,4.604 3.735,8.34 8.349,8.34 h 68.805 c 4.607,0 8.34,-3.735 8.34,-8.34 V 8.547 c 0,-4.604 -3.733,-8.346 -8.34,-8.346 z"
   id="path1"
   inkscape:label="path1"
   style="fill:#ffffff;fill-opacity:1" />
	</g>
</g>
</svg>
